<?xml version="1.0" standalone="no"?>
<!DOCTYPE svg PUBLIC "-//W3C//DTD SVG 20010904//EN"
 "http://www.w3.org/TR/2001/REC-SVG-20010904/DTD/svg10.dtd">
<svg version="1.0" xmlns="http://www.w3.org/2000/svg"
 width="260.000000pt" height="260.000000pt" viewBox="0 0 260.000000 260.000000"
 preserveAspectRatio="xMidYMid meet">
<metadata>
Created by potrace 1.11, written by Peter Selinger 2001-2013
</metadata>
<g transform="translate(0.000000,260.000000) scale(0.100000,-0.100000)"
fill="#000000" stroke="none">
<path d="M0 2280 c0 -12 87 -12 115 0 14 6 -1 9 -47 9 -39 1 -68 -3 -68 -9z"/>
<path d="M1811 1995 c-30 -9 -69 -25 -87 -36 -49 -30 -120 -114 -139 -164
l-17 -44 -25 49 c-33 66 -96 127 -163 159 -46 22 -69 26 -140 26 -71 -1 -94
-5 -141 -28 -63 -31 -126 -93 -160 -159 -17 -32 -24 -66 -27 -129 -4 -78 -2
-92 23 -148 32 -70 112 -152 170 -172 l35 -13 0 -68 c0 -48 -4 -68 -12 -68 -7
0 -123 24 -258 53 l-245 53 -3 -249 c-1 -138 -1 -251 0 -252 3 -3 349 33 481
49 l37 4 0 -84 0 -84 470 0 470 0 0 345 0 345 54 54 c67 68 98 141 97 236 -1
76 -11 116 -45 174 -73 124 -236 190 -375 151z m201 -73 c178 -80 216 -319 73
-451 -58 -54 -107 -73 -186 -74 -110 -2 -196 51 -252 157 -33 62 -31 174 5
242 69 132 225 187 360 126z m-676 -9 c73 -25 148 -104 170 -178 19 -67 15
-145 -11 -196 -24 -47 -83 -107 -127 -130 -54 -28 -195 -27 -254 2 -181 87
-197 365 -28 470 83 51 164 62 250 32z m327 -480 l41 -43 -123 0 -123 0 36 41
c19 23 45 66 57 95 l22 53 24 -52 c13 -29 43 -71 66 -94z"/>
</g>
</svg>
